<?xml version="1.0" encoding="UTF-8"?>
<svg width="222px" height="209px" viewBox="0 0 222 209" version="1.1" xmlns="http://www.w3.org/2000/svg" xmlns:xlink="http://www.w3.org/1999/xlink">
    <!-- Generator: Sketch 54.1 (76490) - https://sketchapp.com -->
    <title>Group 2</title>
    <desc>Created with Sketch.</desc>
    <defs>
        <rect id="path-1" x="0.909035885" y="-1.42108547e-14" width="220.339096" height="182.870426" rx="15"></rect>
        <linearGradient x1="41.3337236%" y1="14.8830308%" x2="103.767959%" y2="82.4935806%" id="linearGradient-3">
            <stop stop-color="#CA2026" offset="0%"></stop>
            <stop stop-color="#FF0036" offset="100%"></stop>
        </linearGradient>
    </defs>
    <g id="Homepage" stroke="none" stroke-width="1" fill="none" fill-rule="evenodd">
        <g id="Desktop-HD" transform="translate(-304.000000, -239.000000)">
            <g id="Group-Copy" transform="translate(70.000000, 239.000000)">
                <g id="Group-2" transform="translate(234.000000, 0.000000)">
                    <g id="Group-4-Copy-5">
                        <mask id="mask-2" fill="white">
                            <use xlink:href="#path-1"></use>
                        </mask>
                        <use id="Rectangle-Copy-5" fill="#FFFFFF" fill-rule="nonzero" xlink:href="#path-1"></use>
                        <circle id="Oval" fill="url(#linearGradient-3)" fill-rule="nonzero" opacity="0.100000001" mask="url(#mask-2)" cx="167" cy="177" r="154"></circle>
                        <path d="M136.42734,55 L91.7601991,65.9965855 L91.7601991,109.344811 C89.7110213,108.153035 87.3792451,107.531223 85.0075784,107.544098 C78.3863317,107.544098 73,112.194483 73,117.902567 C73,123.610652 78.3863317,128.261036 85.0075784,128.261036 C91.6288252,128.261036 97.0151569,123.610652 97.0151569,117.902567 L97.0151569,85.5596685 L131.172382,77.1505149 L131.172382,92.5090211 C129.118037,91.3355674 126.786581,90.7319497 124.419761,90.7607563 C117.842306,90.7607563 112.420941,95.3761753 112.420941,101.093001 C112.420941,106.809827 117.842306,111.45147 124.419761,111.45147 C130.997217,111.45147 136.42734,106.801086 136.42734,101.093001 L136.42734,55 Z M84.8004353,123.344188 C81.0059806,123.344188 77.9168481,121.023184 77.9168481,118.181497 C77.9168481,115.339811 81.0059806,113.018807 84.8004353,113.018807 C88.5948901,113.018807 91.6840226,115.339811 91.6840226,118.181497 C91.6840226,121.023184 88.5859619,123.344188 84.8004353,123.344188 Z M97.0925555,80.0759251 L97.0925555,70.1543949 L131.510492,61.8835873 L131.510492,71.7793249 L97.0925555,80.0759251 Z M124.626905,106.626905 C120.83245,106.626905 117.743317,104.299934 117.743317,101.450942 C117.743317,98.6019513 120.841378,96.3015237 124.626905,96.3015237 C128.412431,96.3015237 131.510492,98.6284947 131.510492,101.477486 C131.510492,104.326477 128.421359,106.626905 124.626905,106.626905 Z" id="Shape" fill="#CB2026" fill-rule="nonzero" mask="url(#mask-2)"></path>
                    </g>
                    <path d="M50.2201378,209 L44.9706261,209 L44.9706261,199.719727 L50.2201378,199.719727 L50.2201378,201.001953 L46.4877159,201.001953 L46.4877159,203.52832 L49.9852745,203.52832 L49.9852745,204.797852 L46.4877159,204.797852 L46.4877159,207.711426 L50.2201378,207.711426 L50.2201378,209 Z M62.1241085,209 L60.2642452,209 L55.7002804,201.60498 L55.6494991,201.60498 L55.6812374,202.017578 C55.7404825,202.804691 55.7701046,203.524085 55.7701046,204.175781 L55.7701046,209 L54.3926632,209 L54.3926632,199.719727 L56.2334835,199.719727 L60.784753,207.07666 L60.822839,207.07666 C60.8143754,206.979329 60.7974485,206.624922 60.7720577,206.013428 C60.746667,205.401934 60.7339718,204.924806 60.7339718,204.582031 L60.7339718,199.719727 L62.1241085,199.719727 L62.1241085,209 Z M69.9465362,209 L68.4294464,209 L68.4294464,201.020996 L65.6999542,201.020996 L65.6999542,199.719727 L72.6760284,199.719727 L72.6760284,201.020996 L69.9465362,201.020996 L69.9465362,209 Z M81.5140811,209 L76.2645694,209 L76.2645694,199.719727 L81.5140811,199.719727 L81.5140811,201.001953 L77.7816592,201.001953 L77.7816592,203.52832 L81.2792178,203.52832 L81.2792178,204.797852 L77.7816592,204.797852 L77.7816592,207.711426 L81.5140811,207.711426 L81.5140811,209 Z M87.2036963,204.036133 L88.2574073,204.036133 C88.9641165,204.036133 89.4761557,203.904949 89.7935401,203.642578 C90.1109245,203.380207 90.2696143,202.990888 90.2696143,202.474609 C90.2696143,201.949867 90.0982293,201.573243 89.7554541,201.344727 C89.412679,201.11621 88.8964081,201.001953 88.206626,201.001953 L87.2036963,201.001953 L87.2036963,204.036133 Z M87.2036963,205.292969 L87.2036963,209 L85.6866065,209 L85.6866065,199.719727 L88.3081885,199.719727 C89.5057856,199.719727 90.3923328,199.944008 90.9678565,200.392578 C91.5433802,200.841148 91.8311377,201.518225 91.8311377,202.423828 C91.8311377,203.579107 91.2302323,204.402179 90.0284034,204.893066 L92.6499854,209 L90.9234229,209 L88.7017432,205.292969 L87.2036963,205.292969 Z M99.3679209,209 L97.8508311,209 L97.8508311,201.020996 L95.1213389,201.020996 L95.1213389,199.719727 L102.097413,199.719727 L102.097413,201.020996 L99.3679209,201.020996 L99.3679209,209 Z M110.535563,209 L109.608806,206.422852 L106.060466,206.422852 L105.152751,209 L103.553142,209 L107.02531,199.681641 L108.6757,199.681641 L112.147868,209 L110.535563,209 Z M109.208903,205.115234 L108.339274,202.588867 C108.275798,202.419596 108.187989,202.152997 108.075847,201.789062 C107.963704,201.425128 107.886475,201.158529 107.844157,200.989258 C107.729899,201.509768 107.562746,202.078936 107.342692,202.696777 L106.504802,205.115234 L109.208903,205.115234 Z M115.539632,209 L115.539632,199.719727 L117.056722,199.719727 L117.056722,209 L115.539632,209 Z M129.405028,209 L127.545165,209 L122.9812,201.60498 L122.930419,201.60498 L122.962157,202.017578 C123.021402,202.804691 123.051024,203.524085 123.051024,204.175781 L123.051024,209 L121.673583,209 L121.673583,199.719727 L123.514403,199.719727 L128.065673,207.07666 L128.103759,207.07666 C128.095295,206.979329 128.078368,206.624922 128.052978,206.013428 C128.027587,205.401934 128.014892,204.924806 128.014892,204.582031 L128.014892,199.719727 L129.405028,199.719727 L129.405028,209 Z M138.033608,209 L135.342202,201.249512 L135.291421,201.249512 C135.363361,202.400559 135.399331,203.47965 135.399331,204.486816 L135.399331,209 L134.02189,209 L134.02189,199.719727 L136.16105,199.719727 L138.738198,207.102051 L138.776284,207.102051 L141.429604,199.719727 L143.575112,199.719727 L143.575112,209 L142.115151,209 L142.115151,204.410645 C142.115151,203.949379 142.126789,203.348474 142.150063,202.60791 C142.173338,201.867347 142.193439,201.418783 142.210366,201.262207 L142.159585,201.262207 L139.372964,209 L138.033608,209 Z M153.435138,209 L148.185626,209 L148.185626,199.719727 L153.435138,199.719727 L153.435138,201.001953 L149.702716,201.001953 L149.702716,203.52832 L153.200274,203.52832 L153.200274,204.797852 L149.702716,204.797852 L149.702716,207.711426 L153.435138,207.711426 L153.435138,209 Z M165.339108,209 L163.479245,209 L158.91528,201.60498 L158.864499,201.60498 L158.896237,202.017578 C158.955482,202.804691 158.985104,203.524085 158.985104,204.175781 L158.985104,209 L157.607663,209 L157.607663,199.719727 L159.448483,199.719727 L163.999753,207.07666 L164.037839,207.07666 C164.029375,206.979329 164.012448,206.624922 163.987058,206.013428 C163.961667,205.401934 163.948972,204.924806 163.948972,204.582031 L163.948972,199.719727 L165.339108,199.719727 L165.339108,209 Z M173.161536,209 L171.644446,209 L171.644446,201.020996 L168.914954,201.020996 L168.914954,199.719727 L175.891028,199.719727 L175.891028,201.020996 L173.161536,201.020996 L173.161536,209 Z" id="ENTERTAINMENT" fill="#FFFFFF" fill-rule="nonzero"></path>
                </g>
            </g>
        </g>
    </g>
</svg>