<?xml version="1.0" encoding="UTF-8"?>
<svg width="222px" height="209px" viewBox="0 0 222 209" version="1.1" xmlns="http://www.w3.org/2000/svg" xmlns:xlink="http://www.w3.org/1999/xlink">
    <!-- Generator: Sketch 53.2 (72643) - https://sketchapp.com -->
    <title>Group 4 Copy 2</title>
    <desc>Created with Sketch.</desc>
    <defs>
        <rect id="path-1" x="0.909035885" y="-1.42108547e-14" width="220.339096" height="182.870426" rx="15"></rect>
        <linearGradient x1="41.3337236%" y1="14.8830308%" x2="103.767959%" y2="82.4935806%" id="linearGradient-3">
            <stop stop-color="#D3D8E0" offset="0%"></stop>
            <stop stop-color="#A5ABB5" offset="100%"></stop>
        </linearGradient>
    </defs>
    <g id="Homepage" stroke="none" stroke-width="1" fill="none" fill-rule="evenodd">
        <g id="Desktop-HD" transform="translate(-972.000000, -315.000000)">
            <g id="Group-4-Copy-2" transform="translate(972.000000, 315.000000)">
                <mask id="mask-2" fill="white">
                    <use xlink:href="#path-1"></use>
                </mask>
                <use id="Rectangle-Copy-5" fill="#FFFFFF" fill-rule="nonzero" xlink:href="#path-1"></use>
                <circle id="Oval" fill="url(#linearGradient-3)" fill-rule="nonzero" opacity="0.600000024" mask="url(#mask-2)" cx="179" cy="163" r="175"></circle>
                <path d="M45.5447613,209 L39.891441,209 L39.891441,199.005859 L45.5447613,199.005859 L45.5447613,200.386719 L41.52523,200.386719 L41.52523,203.107422 L45.2918316,203.107422 L45.2918316,204.474609 L41.52523,204.474609 L41.52523,207.612305 L45.5447613,207.612305 L45.5447613,209 Z M58.3644224,209 L56.3614927,209 L51.4464537,201.036133 L51.3917662,201.036133 L51.4259458,201.480469 C51.4897482,202.328129 51.521649,203.102861 51.521649,203.804688 L51.521649,209 L50.0382505,209 L50.0382505,199.005859 L52.0206724,199.005859 L56.9220396,206.928711 L56.9630552,206.928711 C56.9539406,206.823893 56.9357116,206.442223 56.9083677,205.783691 C56.8810238,205.125159 56.8673521,204.61133 56.8673521,204.242188 L56.8673521,199.005859 L58.3644224,199.005859 L58.3644224,209 Z M66.7885757,209 L65.1547867,209 L65.1547867,200.407227 L62.2153335,200.407227 L62.2153335,199.005859 L69.7280288,199.005859 L69.7280288,200.407227 L66.7885757,200.407227 L66.7885757,209 Z M79.2459322,209 L73.5926118,209 L73.5926118,199.005859 L79.2459322,199.005859 L79.2459322,200.386719 L75.2264009,200.386719 L75.2264009,203.107422 L78.9930025,203.107422 L78.9930025,204.474609 L75.2264009,204.474609 L75.2264009,207.612305 L79.2459322,207.612305 L79.2459322,209 Z M85.3732105,203.654297 L86.5079761,203.654297 C87.2690476,203.654297 87.8204744,203.513022 88.162273,203.230469 C88.5040716,202.947915 88.6749683,202.528649 88.6749683,201.972656 C88.6749683,201.407549 88.4903998,201.001954 88.1212573,200.755859 C87.7521149,200.509764 87.1961308,200.386719 86.4532886,200.386719 L85.3732105,200.386719 L85.3732105,203.654297 Z M85.3732105,205.007812 L85.3732105,209 L83.7394214,209 L83.7394214,199.005859 L86.5626636,199.005859 C87.8523836,199.005859 88.8071266,199.247393 89.4269214,199.730469 C90.0467162,200.213544 90.3566089,200.942703 90.3566089,201.917969 C90.3566089,203.162116 89.70948,204.0485 88.4152027,204.577148 L91.2384448,209 L89.3790698,209 L86.9864917,205.007812 L85.3732105,205.007812 Z M98.473145,209 L96.839356,209 L96.839356,200.407227 L93.8999028,200.407227 L93.8999028,199.005859 L101.412598,199.005859 L101.412598,200.407227 L98.473145,200.407227 L98.473145,209 Z M110.499837,209 L109.501791,206.224609 L105.680501,206.224609 L104.702962,209 L102.980306,209 L106.719564,198.964844 L108.496908,198.964844 L112.236166,209 L110.499837,209 Z M109.071126,204.816406 L108.134603,202.095703 C108.066243,201.913411 107.97168,201.626304 107.850912,201.234375 C107.730143,200.842446 107.646973,200.555339 107.6014,200.373047 C107.478352,200.933597 107.298341,201.546546 107.061361,202.211914 L106.159017,204.816406 L109.071126,204.816406 Z M115.888834,209 L115.888834,199.005859 L117.522624,199.005859 L117.522624,209 L115.888834,209 Z M130.8208,209 L128.817871,209 L123.902832,201.036133 L123.848144,201.036133 L123.882324,201.480469 C123.946126,202.328129 123.978027,203.102861 123.978027,203.804688 L123.978027,209 L122.494628,209 L122.494628,199.005859 L124.47705,199.005859 L129.378417,206.928711 L129.419433,206.928711 C129.410318,206.823893 129.392089,206.442223 129.364746,205.783691 C129.337402,205.125159 129.32373,204.61133 129.32373,204.242188 L129.32373,199.005859 L130.8208,199.005859 L130.8208,209 Z M140.113118,209 L137.21468,200.65332 L137.159993,200.65332 C137.237467,201.89291 137.276204,203.055008 137.276204,204.139648 L137.276204,209 L135.792805,209 L135.792805,199.005859 L138.096516,199.005859 L140.871907,206.956055 L140.912922,206.956055 L143.770344,199.005859 L146.080891,199.005859 L146.080891,209 L144.508625,209 L144.508625,204.057617 C144.508625,203.56087 144.521158,202.913741 144.546223,202.116211 C144.571288,201.318681 144.592935,200.835613 144.611165,200.666992 L144.556477,200.666992 L141.5555,209 L140.113118,209 Z M156.69938,209 L151.04606,209 L151.04606,199.005859 L156.69938,199.005859 L156.69938,200.386719 L152.679849,200.386719 L152.679849,203.107422 L156.446451,203.107422 L156.446451,204.474609 L152.679849,204.474609 L152.679849,207.612305 L156.69938,207.612305 L156.69938,209 Z M169.519041,209 L167.516112,209 L162.601073,201.036133 L162.546385,201.036133 L162.580565,201.480469 C162.644367,202.328129 162.676268,203.102861 162.676268,203.804688 L162.676268,209 L161.19287,209 L161.19287,199.005859 L163.175291,199.005859 L168.076659,206.928711 L168.117674,206.928711 C168.10856,206.823893 168.090331,206.442223 168.062987,205.783691 C168.035643,205.125159 168.021971,204.61133 168.021971,204.242188 L168.021971,199.005859 L169.519041,199.005859 L169.519041,209 Z M177.943195,209 L176.309406,209 L176.309406,200.407227 L173.369953,200.407227 L173.369953,199.005859 L180.882648,199.005859 L180.882648,200.407227 L177.943195,200.407227 L177.943195,209 Z" id="ENTERTAINMENT" fill="#FFFFFF" fill-rule="nonzero"></path>
                <path d="M136.42734,55 L91.7601991,65.9965855 L91.7601991,109.344811 C89.7110213,108.153035 87.3792451,107.531223 85.0075784,107.544098 C78.3863317,107.544098 73,112.194483 73,117.902567 C73,123.610652 78.3863317,128.261036 85.0075784,128.261036 C91.6288252,128.261036 97.0151569,123.610652 97.0151569,117.902567 L97.0151569,85.5596685 L131.172382,77.1505149 L131.172382,92.5090211 C129.118037,91.3355674 126.786581,90.7319497 124.419761,90.7607563 C117.842306,90.7607563 112.420941,95.3761753 112.420941,101.093001 C112.420941,106.809827 117.842306,111.45147 124.419761,111.45147 C130.997217,111.45147 136.42734,106.801086 136.42734,101.093001 L136.42734,55 Z M84.8004353,123.344188 C81.0059806,123.344188 77.9168481,121.023184 77.9168481,118.181497 C77.9168481,115.339811 81.0059806,113.018807 84.8004353,113.018807 C88.5948901,113.018807 91.6840226,115.339811 91.6840226,118.181497 C91.6840226,121.023184 88.5859619,123.344188 84.8004353,123.344188 Z M97.0925555,80.0759251 L97.0925555,70.1543949 L131.510492,61.8835873 L131.510492,71.7793249 L97.0925555,80.0759251 Z M124.626905,106.626905 C120.83245,106.626905 117.743317,104.299934 117.743317,101.450942 C117.743317,98.6019513 120.841378,96.3015237 124.626905,96.3015237 C128.412431,96.3015237 131.510492,98.6284947 131.510492,101.477486 C131.510492,104.326477 128.421359,106.626905 124.626905,106.626905 Z" id="Shape" fill="#5C5C5C" fill-rule="nonzero"></path>
            </g>
        </g>
    </g>
</svg>