<?xml version="1.0" encoding="UTF-8"?>
<svg width="221px" height="210px" viewBox="0 0 221 210" version="1.1" xmlns="http://www.w3.org/2000/svg" xmlns:xlink="http://www.w3.org/1999/xlink">
    <!-- Generator: Sketch 53.2 (72643) - https://sketchapp.com -->
    <title>Group 3</title>
    <desc>Created with Sketch.</desc>
    <defs>
        <rect id="path-1" x="0" y="0" width="220.339096" height="182.870426" rx="15"></rect>
        <linearGradient x1="41.3337236%" y1="14.8830308%" x2="103.767959%" y2="82.4935806%" id="linearGradient-3">
            <stop stop-color="#D3D8E0" offset="0%"></stop>
            <stop stop-color="#A5ABB5" offset="100%"></stop>
        </linearGradient>
    </defs>
    <g id="Homepage" stroke="none" stroke-width="1" fill="none" fill-rule="evenodd">
        <g id="Desktop-HD" transform="translate(-973.000000, -541.000000)">
            <g id="Group-3" transform="translate(973.000000, 541.000000)">
                <mask id="mask-2" fill="white">
                    <use xlink:href="#path-1"></use>
                </mask>
                <use id="Rectangle-Copy-5" fill="#FFFFFF" fill-rule="nonzero" xlink:href="#path-1"></use>
                <circle id="Oval" fill="url(#linearGradient-3)" fill-rule="nonzero" opacity="0.600000024" mask="url(#mask-2)" cx="171.5" cy="166.5" r="169.5"></circle>
                <path d="M81.257,209 L79.2540703,209 L74.3390313,201.036133 L74.2843438,201.036133 L74.3185235,201.480469 C74.3823259,202.328129 74.4142266,203.102861 74.4142266,203.804688 L74.4142266,209 L72.9308282,209 L72.9308282,199.005859 L74.91325,199.005859 L79.8146172,206.928711 L79.8556328,206.928711 C79.8465182,206.823893 79.8282892,206.442223 79.8009453,205.783691 C79.7736015,205.125159 79.7599297,204.61133 79.7599297,204.242188 L79.7599297,199.005859 L81.257,199.005859 L81.257,209 Z M87.3432627,199.005859 L87.4458018,199.15625 C87.2042641,200.108729 86.8032265,201.200189 86.2426768,202.430664 L85.0805674,202.430664 C85.3950221,201.1136 85.6228844,199.97201 85.7641612,199.005859 L87.3432627,199.005859 Z M91.2625332,209 L91.2625332,199.005859 L92.8963223,199.005859 L92.8963223,209 L91.2625332,209 Z M105.750163,209 L104.109538,209 L104.109538,204.495117 L99.5021162,204.495117 L99.5021162,209 L97.8683272,209 L97.8683272,199.005859 L99.5021162,199.005859 L99.5021162,203.09375 L104.109538,203.09375 L104.109538,199.005859 L105.750163,199.005859 L105.750163,209 Z M118.549316,199.005859 L118.549316,205.472656 C118.549316,206.210941 118.390952,206.856931 118.074219,207.410645 C117.757485,207.964358 117.299482,208.390461 116.700195,208.688965 C116.100908,208.987469 115.384282,209.136719 114.550293,209.136719 C113.310703,209.136719 112.346846,208.808597 111.658691,208.152344 C110.970537,207.49609 110.626465,206.593756 110.626465,205.445312 L110.626465,199.005859 L112.26709,199.005859 L112.26709,205.329102 C112.26709,206.153975 112.458494,206.762368 112.841309,207.154297 C113.224123,207.546226 113.812008,207.742188 114.60498,207.742188 C116.145353,207.742188 116.915527,206.933276 116.915527,205.31543 L116.915527,199.005859 L118.549316,199.005859 Z M132.86149,209 L131.227701,209 L131.227701,200.407227 L128.288248,200.407227 L128.288248,199.005859 L135.800943,199.005859 L135.800943,200.407227 L132.86149,200.407227 L132.86149,209 Z M145.359862,199.005859 L147.055175,199.005859 L143.555175,209 L141.832519,209 L138.34619,199.005859 L140.027831,199.005859 L142.112792,205.219727 C142.222168,205.515952 142.338377,205.897621 142.461425,206.364746 C142.584472,206.831871 142.664224,207.179361 142.700683,207.407227 C142.759928,207.060871 142.851073,206.659833 142.97412,206.204102 C143.097168,205.74837 143.197427,205.411134 143.274901,205.192383 L145.359862,199.005859 Z" id="N’IHUTV" fill="#FFFFFF" fill-rule="nonzero"></path>
                <path d="M122.678947,89.5157895 C124.115789,90.4736842 124.115789,92.5263158 122.678947,93.4842105 L105.710526,104.089474 C104.136842,105.047368 102.152632,103.952632 102.152632,102.105263 L102.152632,80.8947368 C102.152632,79.0473684 104.136842,77.9526316 105.710526,78.9105263 L122.678947,89.5157895 Z M110.5,59 C128.426316,59 143,73.5736842 143,91.5 C143,109.426316 128.426316,124 110.5,124 C92.5736842,124 78,109.426316 78,91.5 C78,73.5736842 92.5736842,59 110.5,59 Z M110.5,118.431579 C125.351451,118.431579 137.431579,106.351451 137.431579,91.5000001 C137.431579,76.6485488 125.351451,64.5684211 110.5,64.5684211 C95.6485488,64.5684211 83.5684211,76.6485488 83.5684211,91.5000001 C83.5684211,106.351451 95.6485488,118.431579 110.5,118.431579 Z" id="Combined-Shape" fill="#5C5C5C"></path>
            </g>
        </g>
    </g>
</svg>