<?xml version="1.0" encoding="UTF-8"?>
<svg width="221px" height="210px" viewBox="0 0 221 210" version="1.1" xmlns="http://www.w3.org/2000/svg" xmlns:xlink="http://www.w3.org/1999/xlink">
    <!-- Generator: Sketch 54.1 (76490) - https://sketchapp.com -->
    <title>Group 5</title>
    <desc>Created with Sketch.</desc>
    <defs>
        <rect id="path-1" x="0" y="0" width="220.339096" height="182.870426" rx="15"></rect>
        <linearGradient x1="41.3337236%" y1="14.8830308%" x2="103.767959%" y2="82.4935806%" id="linearGradient-3">
            <stop stop-color="#CA2026" offset="0%"></stop>
            <stop stop-color="#FF0036" offset="100%"></stop>
        </linearGradient>
    </defs>
    <g id="Homepage" stroke="none" stroke-width="1" fill="none" fill-rule="evenodd">
        <g id="Desktop-HD" transform="translate(-305.000000, -465.000000)">
            <g id="Group-Copy" transform="translate(70.000000, 239.000000)">
                <g id="Group-5" transform="translate(235.000000, 226.000000)">
                    <g id="Group-4-Copy-7">
                        <mask id="mask-2" fill="white">
                            <use xlink:href="#path-1"></use>
                        </mask>
                        <use id="Rectangle-Copy-5" fill="#FFFFFF" fill-rule="nonzero" xlink:href="#path-1"></use>
                        <circle id="Oval" fill="url(#linearGradient-3)" fill-rule="nonzero" opacity="0.100000001" mask="url(#mask-2)" cx="166" cy="177" r="154"></circle>
                        <path d="M122.678947,89.5157895 C124.115789,90.4736842 124.115789,92.5263158 122.678947,93.4842105 L105.710526,104.089474 C104.136842,105.047368 102.152632,103.952632 102.152632,102.105263 L102.152632,80.8947368 C102.152632,79.0473684 104.136842,77.9526316 105.710526,78.9105263 L122.678947,89.5157895 Z M110.5,59 C128.426316,59 143,73.5736842 143,91.5 C143,109.426316 128.426316,124 110.5,124 C92.5736842,124 78,109.426316 78,91.5 C78,73.5736842 92.5736842,59 110.5,59 Z M110.5,118.431579 C125.351451,118.431579 137.431579,106.351451 137.431579,91.5000001 C137.431579,76.6485488 125.351451,64.5684211 110.5,64.5684211 C95.6485488,64.5684211 83.5684211,76.6485488 83.5684211,91.5000001 C83.5684211,106.351451 95.6485488,118.431579 110.5,118.431579 Z" id="Combined-Shape" fill="#CB2026" mask="url(#mask-2)"></path>
                    </g>
                    <path d="M83.3457872,209 L81.4859239,209 L76.921959,201.60498 L76.8711778,201.60498 L76.9029161,202.017578 C76.9621612,202.804691 76.9917833,203.524085 76.9917833,204.175781 L76.9917833,209 L75.6143419,209 L75.6143419,199.719727 L77.4551622,199.719727 L82.0064317,207.07666 L82.0445176,207.07666 C82.0360541,206.979329 82.0191271,206.624922 81.9937364,206.013428 C81.9683456,205.401934 81.9556505,204.924806 81.9556505,204.582031 L81.9556505,199.719727 L83.3457872,199.719727 L83.3457872,209 Z M88.9973165,199.719727 L89.0925313,199.859375 C88.8682463,200.74382 88.4958542,201.757319 87.9753438,202.899902 L86.8962422,202.899902 C87.1882359,201.676914 87.3998223,200.616866 87.5310079,199.719727 L88.9973165,199.719727 Z M92.6366387,209 L92.6366387,199.719727 L94.1537285,199.719727 L94.1537285,209 L92.6366387,209 Z M106.089438,209 L104.566,209 L104.566,204.816895 L100.28768,204.816895 L100.28768,209 L98.7705899,209 L98.7705899,199.719727 L100.28768,199.719727 L100.28768,203.515625 L104.566,203.515625 L104.566,199.719727 L106.089438,199.719727 L106.089438,209 Z M117.974365,199.719727 L117.974365,205.724609 C117.974365,206.41016 117.827313,207.010007 117.533203,207.52417 C117.239094,208.038333 116.813805,208.433999 116.257324,208.711182 C115.700844,208.988364 115.035404,209.126953 114.260986,209.126953 C113.109939,209.126953 112.214928,208.822269 111.575928,208.212891 C110.936927,207.603513 110.617432,206.76563 110.617432,205.699219 L110.617432,199.719727 L112.140869,199.719727 L112.140869,205.591309 C112.140869,206.357263 112.318602,206.922199 112.674072,207.286133 C113.029543,207.650067 113.575436,207.832031 114.311768,207.832031 C115.742113,207.832031 116.457275,207.080899 116.457275,205.578613 L116.457275,199.719727 L117.974365,199.719727 Z M131.26424,209 L129.74715,209 L129.74715,201.020996 L127.017658,201.020996 L127.017658,199.719727 L133.993732,199.719727 L133.993732,201.020996 L131.26424,201.020996 L131.26424,209 Z M142.869871,199.719727 L144.44409,199.719727 L141.19409,209 L139.59448,209 L136.357176,199.719727 L137.918699,199.719727 L139.854734,205.489746 C139.956297,205.764813 140.064206,206.11922 140.178465,206.552979 C140.292723,206.986737 140.366778,207.309406 140.400633,207.520996 C140.455646,207.19938 140.540281,206.826988 140.654539,206.403809 C140.768797,205.980629 140.861895,205.667481 140.933836,205.464355 L142.869871,199.719727 Z" id="N’IHUTV" fill="#FFFFFF" fill-rule="nonzero"></path>
                </g>
            </g>
        </g>
    </g>
</svg>