<?xml version="1.0" encoding="UTF-8"?>
<svg width="221px" height="210px" viewBox="0 0 221 210" version="1.1" xmlns="http://www.w3.org/2000/svg" xmlns:xlink="http://www.w3.org/1999/xlink">
    <!-- Generator: Sketch 53.2 (72643) - https://sketchapp.com -->
    <title>Group 3</title>
    <desc>Created with Sketch.</desc>
    <defs>
        <rect id="path-1" x="2.84217094e-14" y="-1.42108547e-14" width="220.339096" height="182.870426" rx="15"></rect>
        <linearGradient x1="41.3337236%" y1="14.8830308%" x2="103.767959%" y2="82.4935806%" id="linearGradient-3">
            <stop stop-color="#D3D8E0" offset="0%"></stop>
            <stop stop-color="#A5ABB5" offset="100%"></stop>
        </linearGradient>
    </defs>
    <g id="Homepage" stroke="none" stroke-width="1" fill="none" fill-rule="evenodd">
        <g id="Desktop-HD" transform="translate(-738.000000, -541.000000)">
            <g id="Group-3" transform="translate(738.000000, 541.000000)">
                <mask id="mask-2" fill="white">
                    <use xlink:href="#path-1"></use>
                </mask>
                <use id="Rectangle-Copy-5" fill="#FFFFFF" fill-rule="nonzero" xlink:href="#path-1"></use>
                <circle id="Oval" fill="url(#linearGradient-3)" fill-rule="nonzero" opacity="0.600000024" mask="url(#mask-2)" cx="184" cy="183" r="183"></circle>
                <path d="M82.568,98.759 C76.391,98.759 71.366,93.734 71.366,87.557 C71.366,81.38 76.392,76.356 82.568,76.356 C88.744,76.356 93.769,81.38 93.769,87.557 C93.769,93.734 88.745,98.759 82.568,98.759 Z M82.568,81.069 C78.99,81.069 76.08,83.98 76.08,87.557 C76.08,91.134 78.99,94.045 82.568,94.045 C86.146,94.045 89.056,91.135 89.056,87.557 C89.056,83.979 86.146,81.069 82.568,81.069 Z M69.714,115.243 L69.714,116.212 L65,116.212 L65,115.243 C65,107.831 71.03,101.801 78.442,101.802 L86.693,101.802 C87.113,101.802 87.528,101.823 87.938,101.862 C89.114,101.975 90.034,103.006 90.034,104.208 C90.034,104.867 89.767,105.475 89.284,105.92 C88.788,106.376 88.11,106.605 87.427,106.546 C87.185,106.525 86.94,106.515 86.693,106.515 L78.442,106.515 C73.629,106.515 69.714,110.43 69.714,115.243 Z M90.87,116.211 L90.872,116.211 L90.872,110.408 C90.872,107.142 91.943,104.045 93.97,101.452 C96.764,97.878 100.949,95.828 105.452,95.828 L114.551,95.828 C117.385,95.828 120.141,96.653 122.521,98.214 C126.66,100.928 129.131,105.487 129.131,110.408 L129.131,116.211 L124.417,116.211 L124.417,110.408 C124.417,104.968 119.99,100.542 114.55,100.542 L105.451,100.542 C100.01,100.542 95.584,104.968 95.584,110.408 L95.584,116.211 L90.87,116.211 Z M141.558,101.801 C148.97,101.801 155,107.831 155,115.243 L155,116.212 L150.286,116.212 L150.286,115.243 C150.286,110.43 146.371,106.515 141.558,106.515 L133.307,106.515 C133.146,106.515 132.986,106.519 132.827,106.529 C132.183,106.566 131.564,106.343 131.091,105.898 C130.621,105.455 130.352,104.83 130.352,104.182 C130.352,102.927 131.348,101.89 132.619,101.82 C132.847,101.808 133.076,101.801 133.307,101.801 L141.558,101.801 Z M137.432,98.759 C131.256,98.759 126.23,93.734 126.23,87.557 C126.23,81.38 131.255,76.356 137.432,76.356 C143.609,76.356 148.634,81.38 148.634,87.557 C148.634,93.734 143.609,98.759 137.432,98.759 Z M137.432,81.069 C133.855,81.069 130.944,83.98 130.944,87.557 C130.944,91.134 133.855,94.045 137.432,94.045 C141.009,94.045 143.92,91.135 143.92,87.557 C143.92,83.979 141.01,81.069 137.432,81.069 Z M110,93.971 C102.23,93.971 95.909,87.649 95.909,79.88 C95.909,72.11 102.23,65.789 110,65.789 C117.77,65.789 124.091,72.11 124.091,79.88 C124.091,87.65 117.769,93.971 110,93.971 Z M110,70.502 C104.829,70.502 100.622,74.709 100.622,79.88 C100.622,85.05 104.829,89.257 110,89.257 C115.17,89.257 119.377,85.05 119.377,79.88 C119.377,74.709 115.17,70.502 110,70.502 Z" id="Combined-Shape" fill="#5C5C5C" fill-rule="nonzero" mask="url(#mask-2)"></path>
                <path d="M71.3281265,203.989258 C71.3281265,205.616219 70.9213923,206.880855 70.1079117,207.783203 C69.294431,208.685551 68.1425871,209.136719 66.6523452,209.136719 C65.1438742,209.136719 63.9851943,208.688969 63.176271,207.793457 C62.3673477,206.897945 61.9628921,205.625334 61.9628921,203.975586 C61.9628921,202.325838 62.3696263,201.058924 63.183107,200.174805 C63.9965876,199.290686 65.157546,198.848633 66.6660171,198.848633 C68.1517016,198.848633 69.3001277,199.297522 70.1113296,200.195312 C70.9225316,201.093103 71.3281265,202.357739 71.3281265,203.989258 Z M63.6992202,203.989258 C63.6992202,205.219733 63.9475902,206.152829 64.4443374,206.788574 C64.9410847,207.42432 65.67708,207.742188 66.6523452,207.742188 C67.6230532,207.742188 68.3556305,207.427738 68.8500992,206.798828 C69.3445678,206.169919 69.5917984,205.233405 69.5917984,203.989258 C69.5917984,202.76334 69.3468464,201.833662 68.8569351,201.200195 C68.3670238,200.566729 67.6367251,200.25 66.6660171,200.25 C65.6861945,200.25 64.9467813,200.566729 64.4477554,201.200195 C63.9487295,201.833662 63.6992202,202.76334 63.6992202,203.989258 Z M83.6419282,199.005859 L83.6419282,205.472656 C83.6419282,206.210941 83.4835639,206.856931 83.1668306,207.410645 C82.8500972,207.964358 82.392094,208.390461 81.7928072,208.688965 C81.1935203,208.987469 80.4768934,209.136719 79.6429048,209.136719 C78.4033153,209.136719 77.4394577,208.808597 76.7513032,208.152344 C76.0631488,207.49609 75.7190767,206.593756 75.7190767,205.445312 L75.7190767,199.005859 L77.3597017,199.005859 L77.3597017,205.329102 C77.3597017,206.153975 77.551106,206.762368 77.9339204,207.154297 C78.3167349,207.546226 78.9046196,207.742188 79.6975923,207.742188 C81.2379646,207.742188 82.0081392,206.933276 82.0081392,205.31543 L82.0081392,199.005859 L83.6419282,199.005859 Z M90.1656909,203.654297 L91.3004566,203.654297 C92.0615281,203.654297 92.6129549,203.513022 92.9547534,203.230469 C93.296552,202.947915 93.4674487,202.528649 93.4674487,201.972656 C93.4674487,201.407549 93.2828803,201.001954 92.9137378,200.755859 C92.5445953,200.509764 91.9886113,200.386719 91.2457691,200.386719 L90.1656909,200.386719 L90.1656909,203.654297 Z M90.1656909,205.007812 L90.1656909,209 L88.5319019,209 L88.5319019,199.005859 L91.3551441,199.005859 C92.6448641,199.005859 93.5996071,199.247393 94.2194019,199.730469 C94.8391966,200.213544 95.1490894,200.942703 95.1490894,201.917969 C95.1490894,203.162116 94.5019604,204.0485 93.2076831,204.577148 L96.0309253,209 L94.1715503,209 L91.7789722,205.007812 L90.1656909,205.007812 Z M111.477865,199.005859 L113.173177,199.005859 L109.673177,209 L107.950521,209 L104.464193,199.005859 L106.145833,199.005859 L108.230794,205.219727 C108.34017,205.515952 108.45638,205.897621 108.579427,206.364746 C108.702475,206.831871 108.782227,207.179361 108.818685,207.407227 C108.87793,207.060871 108.969075,206.659833 109.092123,206.204102 C109.21517,205.74837 109.315429,205.411134 109.392904,205.192383 L111.477865,199.005859 Z M116.825846,209 L116.825846,199.005859 L118.459635,199.005859 L118.459635,209 L116.825846,209 Z M129.08496,209 L123.43164,209 L123.43164,199.005859 L129.08496,199.005859 L129.08496,200.386719 L125.065429,200.386719 L125.065429,203.107422 L128.832031,203.107422 L128.832031,204.474609 L125.065429,204.474609 L125.065429,207.612305 L129.08496,207.612305 L129.08496,209 Z M142.800129,209 L141.022786,209 L139.327473,203.039062 C139.254556,202.779296 139.163411,202.404462 139.054036,201.914551 C138.94466,201.424639 138.87858,201.083985 138.855793,200.892578 C138.81022,201.184246 138.736165,201.562498 138.633625,202.027344 C138.531086,202.49219 138.445638,202.838541 138.377278,203.066406 L136.722981,209 L134.945637,209 L133.653645,203.996094 L132.341145,199.005859 L134.009114,199.005859 L135.437825,204.830078 C135.661133,205.764328 135.820637,206.589189 135.91634,207.304688 C135.966471,206.917316 136.041665,206.484377 136.141926,206.005859 C136.242187,205.527341 136.333332,205.139975 136.415364,204.84375 L138.042317,199.005859 L139.662434,199.005859 L141.330403,204.871094 C141.489909,205.413414 141.658527,206.224604 141.836262,207.304688 C141.904622,206.652992 142.068683,205.823573 142.32845,204.816406 L143.750325,199.005859 L145.404622,199.005859 L142.800129,209 Z M154.915689,206.286133 C154.915689,207.174809 154.594403,207.872068 153.951822,208.37793 C153.30924,208.883792 152.422856,209.136719 151.292642,209.136719 C150.162428,209.136719 149.237307,208.961265 148.517251,208.610352 L148.517251,207.06543 C148.972983,207.279623 149.45719,207.448242 149.969888,207.571289 C150.482586,207.694337 150.959958,207.755859 151.402017,207.755859 C152.049156,207.755859 152.526527,207.632814 152.834146,207.386719 C153.141765,207.140624 153.295572,206.810223 153.295572,206.395508 C153.295572,206.021808 153.154297,205.705079 152.871744,205.445312 C152.58919,205.185546 152.005863,204.877931 151.121744,204.522461 C150.210281,204.153318 149.567709,203.731773 149.194009,203.257812 C148.820309,202.783852 148.633462,202.214196 148.633462,201.548828 C148.633462,200.71484 148.929683,200.058596 149.522134,199.580078 C150.114585,199.10156 150.909825,198.862305 151.907876,198.862305 C152.864912,198.862305 153.817377,199.071938 154.765298,199.491211 L154.245767,200.824219 C153.357091,200.450519 152.56413,200.263672 151.866861,200.263672 C151.338212,200.263672 150.937175,200.378742 150.663736,200.608887 C150.390297,200.839031 150.25358,201.143227 150.25358,201.521484 C150.25358,201.781251 150.308267,202.003417 150.417642,202.187988 C150.527018,202.37256 150.707029,202.546874 150.957681,202.710938 C151.208333,202.875001 151.659501,203.09147 152.311197,203.360352 C153.044924,203.665692 153.582679,203.95052 153.924478,204.214844 C154.266277,204.479168 154.516925,204.777668 154.676431,205.110352 C154.835937,205.443036 154.915689,205.834959 154.915689,206.286133 Z" id="OURVIEWS" fill="#FFFFFF" fill-rule="nonzero"></path>
            </g>
        </g>
    </g>
</svg>