<?xml version="1.0" encoding="UTF-8"?>
<svg width="221px" height="211px" viewBox="0 0 221 211" version="1.1" xmlns="http://www.w3.org/2000/svg" xmlns:xlink="http://www.w3.org/1999/xlink">
    <!-- Generator: Sketch 54.1 (76490) - https://sketchapp.com -->
    <title>Group 4</title>
    <desc>Created with Sketch.</desc>
    <defs>
        <rect id="path-1" x="0" y="0" width="220.339096" height="182.870426" rx="15"></rect>
        <linearGradient x1="41.3337236%" y1="14.8830308%" x2="103.767959%" y2="82.4935806%" id="linearGradient-3">
            <stop stop-color="#CA2026" offset="0%"></stop>
            <stop stop-color="#FF0036" offset="100%"></stop>
        </linearGradient>
    </defs>
    <g id="Homepage" stroke="none" stroke-width="1" fill="none" fill-rule="evenodd">
        <g id="Desktop-HD" transform="translate(-70.000000, -465.000000)">
            <g id="Group-Copy" transform="translate(70.000000, 239.000000)">
                <g id="Group-4" transform="translate(0.000000, 226.000000)">
                    <g id="Group-4-Copy-4">
                        <mask id="mask-2" fill="white">
                            <use xlink:href="#path-1"></use>
                        </mask>
                        <use id="Rectangle-Copy-5" fill="#FFFFFF" fill-rule="nonzero" xlink:href="#path-1"></use>
                        <circle id="Oval" fill="url(#linearGradient-3)" fill-rule="nonzero" opacity="0.100000001" mask="url(#mask-2)" cx="166" cy="177" r="154"></circle>
                        <path d="M82.568,98.759 C76.391,98.759 71.366,93.734 71.366,87.557 C71.366,81.38 76.392,76.356 82.568,76.356 C88.744,76.356 93.769,81.38 93.769,87.557 C93.769,93.734 88.745,98.759 82.568,98.759 Z M82.568,81.069 C78.99,81.069 76.08,83.98 76.08,87.557 C76.08,91.134 78.99,94.045 82.568,94.045 C86.146,94.045 89.056,91.135 89.056,87.557 C89.056,83.979 86.146,81.069 82.568,81.069 Z M69.714,115.243 L69.714,116.212 L65,116.212 L65,115.243 C65,107.831 71.03,101.801 78.442,101.802 L86.693,101.802 C87.113,101.802 87.528,101.823 87.938,101.862 C89.114,101.975 90.034,103.006 90.034,104.208 C90.034,104.867 89.767,105.475 89.284,105.92 C88.788,106.376 88.11,106.605 87.427,106.546 C87.185,106.525 86.94,106.515 86.693,106.515 L78.442,106.515 C73.629,106.515 69.714,110.43 69.714,115.243 Z M90.87,116.211 L90.872,116.211 L90.872,110.408 C90.872,107.142 91.943,104.045 93.97,101.452 C96.764,97.878 100.949,95.828 105.452,95.828 L114.551,95.828 C117.385,95.828 120.141,96.653 122.521,98.214 C126.66,100.928 129.131,105.487 129.131,110.408 L129.131,116.211 L124.417,116.211 L124.417,110.408 C124.417,104.968 119.99,100.542 114.55,100.542 L105.451,100.542 C100.01,100.542 95.584,104.968 95.584,110.408 L95.584,116.211 L90.87,116.211 Z M141.558,101.801 C148.97,101.801 155,107.831 155,115.243 L155,116.212 L150.286,116.212 L150.286,115.243 C150.286,110.43 146.371,106.515 141.558,106.515 L133.307,106.515 C133.146,106.515 132.986,106.519 132.827,106.529 C132.183,106.566 131.564,106.343 131.091,105.898 C130.621,105.455 130.352,104.83 130.352,104.182 C130.352,102.927 131.348,101.89 132.619,101.82 C132.847,101.808 133.076,101.801 133.307,101.801 L141.558,101.801 Z M137.432,98.759 C131.256,98.759 126.23,93.734 126.23,87.557 C126.23,81.38 131.255,76.356 137.432,76.356 C143.609,76.356 148.634,81.38 148.634,87.557 C148.634,93.734 143.609,98.759 137.432,98.759 Z M137.432,81.069 C133.855,81.069 130.944,83.98 130.944,87.557 C130.944,91.134 133.855,94.045 137.432,94.045 C141.009,94.045 143.92,91.135 143.92,87.557 C143.92,83.979 141.01,81.069 137.432,81.069 Z M110,93.971 C102.23,93.971 95.909,87.649 95.909,79.88 C95.909,72.11 102.23,65.789 110,65.789 C117.77,65.789 124.091,72.11 124.091,79.88 C124.091,87.65 117.769,93.971 110,93.971 Z M110,70.502 C104.829,70.502 100.622,74.709 100.622,79.88 C100.622,85.05 104.829,89.257 110,89.257 C115.17,89.257 119.377,85.05 119.377,79.88 C119.377,74.709 115.17,70.502 110,70.502 Z" id="Combined-Shape" fill="#CB2026" fill-rule="nonzero" mask="url(#mask-2)"></path>
                    </g>
                    <path d="M21.5058664,202.525391 C21.5058664,203.494471 21.1884867,204.237139 20.5537179,204.753418 C19.9189491,205.269697 19.0154751,205.527832 17.8432687,205.527832 L16.878425,205.527832 L16.878425,209 L15.3613351,209 L15.3613351,199.719727 L18.0336984,199.719727 C19.1932094,199.719727 20.0617717,199.956703 20.6394113,200.430664 C21.2170509,200.904625 21.5058664,201.60286 21.5058664,202.525391 Z M16.878425,204.251953 L17.6845773,204.251953 C18.463227,204.251953 19.0345104,204.116538 19.3984445,203.845703 C19.7623786,203.574868 19.9443429,203.151696 19.9443429,202.576172 C19.9443429,202.042966 19.7814214,201.645184 19.4555734,201.382812 C19.1297254,201.120441 18.621918,200.989258 17.9321359,200.989258 L16.878425,200.989258 L16.878425,204.251953 Z M30.6359113,209 L29.7091535,206.422852 L26.1608136,206.422852 L25.2530988,209 L23.6534894,209 L27.1256574,199.681641 L28.776048,199.681641 L32.248216,209 L30.6359113,209 Z M29.3092511,205.115234 L28.4396222,202.588867 C28.3761453,202.419596 28.288337,202.152997 28.1761945,201.789062 C28.064052,201.425128 27.986823,201.158529 27.944505,200.989258 C27.8302466,201.509768 27.6630934,202.078936 27.4430402,202.696777 L26.6051496,205.115234 L29.3092511,205.115234 Z M40.9910538,206.47998 C40.9910538,207.30518 40.692717,207.952634 40.0960343,208.422363 C39.4993516,208.892092 38.6762804,209.126953 37.626796,209.126953 C36.5773116,209.126953 35.7182707,208.964032 35.0496476,208.638184 L35.0496476,207.203613 C35.4728268,207.402508 35.9224479,207.559081 36.3985245,207.67334 C36.8746011,207.787598 37.3178747,207.844727 37.7283585,207.844727 C38.329273,207.844727 38.7725466,207.73047 39.0581925,207.501953 C39.3438385,207.273436 39.4866593,206.966636 39.4866593,206.581543 C39.4866593,206.234536 39.3554757,205.940431 39.0931046,205.699219 C38.8307335,205.458007 38.2890723,205.172365 37.4681046,204.842285 C36.6217462,204.49951 36.0250725,204.108075 35.6780656,203.667969 C35.3310586,203.227862 35.1575577,202.698896 35.1575577,202.081055 C35.1575577,201.306637 35.4326201,200.697268 35.9827531,200.25293 C36.532886,199.808592 37.2713226,199.586426 38.1980851,199.586426 C39.0867614,199.586426 39.9711927,199.781085 40.8514054,200.17041 L40.3689835,201.408203 C39.5437841,201.061196 38.8074633,200.887695 38.1599992,200.887695 C37.6691113,200.887695 37.2967192,200.994546 37.0428117,201.208252 C36.7889041,201.421957 36.6619523,201.704425 36.6619523,202.055664 C36.6619523,202.296876 36.712733,202.503173 36.814296,202.674561 C36.915859,202.845948 37.0830123,203.007812 37.3157609,203.160156 C37.5485094,203.312501 37.9674506,203.513508 38.5725968,203.763184 C39.2539153,204.046714 39.7532593,204.311197 40.0706437,204.556641 C40.3880281,204.802085 40.6207732,205.079263 40.7688859,205.388184 C40.9169986,205.697104 40.9910538,206.061033 40.9910538,206.47998 Z M48.159673,209 L46.6425831,209 L46.6425831,201.020996 L43.9130909,201.020996 L43.9130909,199.719727 L50.8891652,199.719727 L50.8891652,201.020996 L48.159673,201.020996 L48.159673,209 Z M55.0870812,207.635254 C54.8839551,208.422367 54.511563,209.435866 53.9698937,210.675781 L52.8717491,210.675781 C53.1637428,209.533197 53.3816768,208.471034 53.5255577,207.489258 L54.9918663,207.489258 L55.0870812,207.635254 Z M71.0239288,202.525391 C71.0239288,203.494471 70.7065491,204.237139 70.0717803,204.753418 C69.4370115,205.269697 68.5335375,205.527832 67.3613311,205.527832 L66.3964874,205.527832 L66.3964874,209 L64.8793975,209 L64.8793975,199.719727 L67.5517608,199.719727 C68.7112718,199.719727 69.5798341,199.956703 70.1574737,200.430664 C70.7351133,200.904625 71.0239288,201.60286 71.0239288,202.525391 Z M66.3964874,204.251953 L67.2026397,204.251953 C67.9812894,204.251953 68.5525728,204.116538 68.9165069,203.845703 C69.280441,203.574868 69.4624053,203.151696 69.4624053,202.576172 C69.4624053,202.042966 69.2994838,201.645184 68.9736358,201.382812 C68.6477878,201.120441 68.1399804,200.989258 67.4501983,200.989258 L66.3964874,200.989258 L66.3964874,204.251953 Z M76.5612002,204.036133 L77.6149112,204.036133 C78.3216205,204.036133 78.8336596,203.904949 79.151044,203.642578 C79.4684284,203.380207 79.6271182,202.990888 79.6271182,202.474609 C79.6271182,201.949867 79.4557332,201.573243 79.1129581,201.344727 C78.7701829,201.11621 78.253912,201.001953 77.5641299,201.001953 L76.5612002,201.001953 L76.5612002,204.036133 Z M76.5612002,205.292969 L76.5612002,209 L75.0441104,209 L75.0441104,199.719727 L77.6656924,199.719727 C78.8632896,199.719727 79.7498367,199.944008 80.3253604,200.392578 C80.9008841,200.841148 81.1886417,201.518225 81.1886417,202.423828 C81.1886417,203.579107 80.5877362,204.402179 79.3859073,204.893066 L82.0074893,209 L80.2809268,209 L78.0592471,205.292969 L76.5612002,205.292969 Z M90.7693702,209 L85.5198584,209 L85.5198584,199.719727 L90.7693702,199.719727 L90.7693702,201.001953 L87.0369483,201.001953 L87.0369483,203.52832 L90.5345069,203.52832 L90.5345069,204.797852 L87.0369483,204.797852 L87.0369483,207.711426 L90.7693702,207.711426 L90.7693702,209 Z M100.29297,206.47998 C100.29297,207.30518 99.9946329,207.952634 99.3979502,208.422363 C98.8012675,208.892092 97.9781964,209.126953 96.9287119,209.126953 C95.8792275,209.126953 95.0201866,208.964032 94.3515635,208.638184 L94.3515635,207.203613 C94.7747427,207.402508 95.2243639,207.559081 95.7004405,207.67334 C96.1765171,207.787598 96.6197906,207.844727 97.0302744,207.844727 C97.6311889,207.844727 98.0744625,207.73047 98.3601084,207.501953 C98.6457544,207.273436 98.7885752,206.966636 98.7885752,206.581543 C98.7885752,206.234536 98.6573916,205.940431 98.3950205,205.699219 C98.1326494,205.458007 97.5909882,205.172365 96.7700205,204.842285 C95.9236621,204.49951 95.3269884,204.108075 94.9799815,203.667969 C94.6329745,203.227862 94.4594737,202.698896 94.4594737,202.081055 C94.4594737,201.306637 94.734536,200.697268 95.284669,200.25293 C95.8348019,199.808592 96.5732386,199.586426 97.500001,199.586426 C98.3886773,199.586426 99.2731086,199.781085 100.153321,200.17041 L99.6708994,201.408203 C98.8457,201.061196 98.1093792,200.887695 97.4619151,200.887695 C96.9710272,200.887695 96.5986351,200.994546 96.3447276,201.208252 C96.09082,201.421957 95.9638682,201.704425 95.9638682,202.055664 C95.9638682,202.296876 96.0146489,202.503173 96.1162119,202.674561 C96.2177749,202.845948 96.3849282,203.007812 96.6176768,203.160156 C96.8504253,203.312501 97.2693665,203.513508 97.8745127,203.763184 C98.5558312,204.046714 99.0551752,204.311197 99.3725596,204.556641 C99.689944,204.802085 99.9226891,205.079263 100.070802,205.388184 C100.218915,205.697104 100.29297,206.061033 100.29297,206.47998 Z M109.505534,209 L104.256022,209 L104.256022,199.719727 L109.505534,199.719727 L109.505534,201.001953 L105.773112,201.001953 L105.773112,203.52832 L109.270671,203.52832 L109.270671,204.797852 L105.773112,204.797852 L105.773112,207.711426 L109.505534,207.711426 L109.505534,209 Z M121.409505,209 L119.549642,209 L114.985677,201.60498 L114.934895,201.60498 L114.966634,202.017578 C115.025879,202.804691 115.055501,203.524085 115.055501,204.175781 L115.055501,209 L113.67806,209 L113.67806,199.719727 L115.51888,199.719727 L120.070149,207.07666 L120.108235,207.07666 C120.099772,206.979329 120.082845,206.624922 120.057454,206.013428 C120.032063,205.401934 120.019368,204.924806 120.019368,204.582031 L120.019368,199.719727 L121.409505,199.719727 L121.409505,209 Z M129.231933,209 L127.714843,209 L127.714843,201.020996 L124.985351,201.020996 L124.985351,199.719727 L131.961425,199.719727 L131.961425,201.020996 L129.231933,201.020996 L129.231933,209 Z M136.159341,207.635254 C135.956215,208.422367 135.583823,209.435866 135.042153,210.675781 L133.944009,210.675781 C134.236002,209.533197 134.453936,208.471034 134.597817,207.489258 L136.064126,207.489258 L136.159341,207.635254 Z M147.456052,209 L145.951657,209 L145.951657,199.719727 L151.188474,199.719727 L151.188474,201.001953 L147.456052,201.001953 L147.456052,203.902832 L150.95361,203.902832 L150.95361,205.191406 L147.456052,205.191406 L147.456052,209 Z M162.311683,199.719727 L162.311683,205.724609 C162.311683,206.41016 162.16463,207.010007 161.87052,207.52417 C161.576411,208.038333 161.151122,208.433999 160.594642,208.711182 C160.038161,208.988364 159.372722,209.126953 158.598304,209.126953 C157.447256,209.126953 156.552246,208.822269 155.913245,208.212891 C155.274244,207.603513 154.954749,206.76563 154.954749,205.699219 L154.954749,199.719727 L156.478186,199.719727 L156.478186,205.591309 C156.478186,206.357263 156.655919,206.922199 157.01139,207.286133 C157.36686,207.650067 157.912753,207.832031 158.649085,207.832031 C160.079431,207.832031 160.794593,207.080899 160.794593,205.578613 L160.794593,199.719727 L162.311683,199.719727 Z M170.057938,209 L168.540849,209 L168.540849,201.020996 L165.811356,201.020996 L165.811356,199.719727 L172.787431,199.719727 L172.787431,201.020996 L170.057938,201.020996 L170.057938,209 Z M183.650386,199.719727 L183.650386,205.724609 C183.650386,206.41016 183.503333,207.010007 183.209224,207.52417 C182.915114,208.038333 182.489825,208.433999 181.933345,208.711182 C181.376864,208.988364 180.711425,209.126953 179.937007,209.126953 C178.785959,209.126953 177.890949,208.822269 177.251948,208.212891 C176.612948,207.603513 176.293452,206.76563 176.293452,205.699219 L176.293452,199.719727 L177.81689,199.719727 L177.81689,205.591309 C177.81689,206.357263 177.994622,206.922199 178.350093,207.286133 C178.705563,207.650067 179.251456,207.832031 179.987788,207.832031 C181.418134,207.832031 182.133296,207.080899 182.133296,205.578613 L182.133296,199.719727 L183.650386,199.719727 Z M189.708165,204.036133 L190.761876,204.036133 C191.468585,204.036133 191.980624,203.904949 192.298009,203.642578 C192.615393,203.380207 192.774083,202.990888 192.774083,202.474609 C192.774083,201.949867 192.602698,201.573243 192.259923,201.344727 C191.917148,201.11621 191.400877,201.001953 190.711095,201.001953 L189.708165,201.001953 L189.708165,204.036133 Z M189.708165,205.292969 L189.708165,209 L188.191075,209 L188.191075,199.719727 L190.812657,199.719727 C192.010254,199.719727 192.896801,199.944008 193.472325,200.392578 C194.047849,200.841148 194.335606,201.518225 194.335606,202.423828 C194.335606,203.579107 193.734701,204.402179 192.532872,204.893066 L195.154454,209 L193.427891,209 L191.206212,205.292969 L189.708165,205.292969 Z M203.916335,209 L198.666823,209 L198.666823,199.719727 L203.916335,199.719727 L203.916335,201.001953 L200.183913,201.001953 L200.183913,203.52832 L203.681472,203.52832 L203.681472,204.797852 L200.183913,204.797852 L200.183913,207.711426 L203.916335,207.711426 L203.916335,209 Z" id="PAST,PRESENT,FUTURE" fill="#FFFFFF" fill-rule="nonzero"></path>
                </g>
            </g>
        </g>
    </g>
</svg>