<?xml version="1.0" encoding="UTF-8"?>
<svg width="221px" height="208px" viewBox="0 0 221 208" version="1.1" xmlns="http://www.w3.org/2000/svg" xmlns:xlink="http://www.w3.org/1999/xlink">
    <!-- Generator: Sketch 54.1 (76490) - https://sketchapp.com -->
    <title>Group 3</title>
    <desc>Created with Sketch.</desc>
    <defs>
        <rect id="path-1" x="0" y="0" width="220.339096" height="182.870426" rx="15"></rect>
        <linearGradient x1="100%" y1="0%" x2="-264.100514%" y2="203.485673%" id="linearGradient-3">
            <stop stop-color="#9999A4" offset="0%"></stop>
            <stop stop-color="#60606B" offset="100%"></stop>
        </linearGradient>
    </defs>
    <g id="Homepage" stroke="none" stroke-width="1" fill="none" fill-rule="evenodd">
        <g id="1-copy" transform="translate(-738.000000, -536.000000)">
            <g id="Group-3" transform="translate(738.000000, 536.000000)">
                <path d="M35.503418,198.529297 C35.503418,199.647467 35.1372107,200.504392 34.4047852,201.100098 C33.6723596,201.695804 32.6298896,201.993652 31.2773438,201.993652 L30.1640625,201.993652 L30.1640625,206 L28.4135742,206 L28.4135742,195.291992 L31.4970703,195.291992 C32.8349676,195.291992 33.8371549,195.565427 34.5036621,196.112305 C35.1701693,196.659182 35.503418,197.464838 35.503418,198.529297 Z M30.1640625,200.521484 L31.0942383,200.521484 C31.9926803,200.521484 32.6518534,200.365236 33.0717773,200.052734 C33.4917013,199.740233 33.7016602,199.251956 33.7016602,198.587891 C33.7016602,197.972653 33.5136738,197.513673 33.1376953,197.210938 C32.7617169,196.908202 32.1757852,196.756836 31.3798828,196.756836 L30.1640625,196.756836 L30.1640625,200.521484 Z M44.2851562,206 L43.2158203,203.026367 L39.121582,203.026367 L38.0742188,206 L36.2285156,206 L40.2348633,195.248047 L42.1391602,195.248047 L46.1455078,206 L44.2851562,206 Z M42.7543945,201.517578 L41.7509766,198.602539 C41.677734,198.407226 41.5764167,198.099611 41.4470215,197.679688 C41.3176263,197.259764 41.2285159,196.952149 41.1796875,196.756836 C41.0478509,197.357425 40.8549817,198.014157 40.6010742,198.727051 L39.6342773,201.517578 L42.7543945,201.517578 Z M53.7333984,203.092285 C53.7333984,204.044438 53.3891636,204.791501 52.7006836,205.333496 C52.0122036,205.875491 51.0625061,206.146484 49.8515625,206.146484 C48.6406189,206.146484 47.6494179,205.958498 46.8779297,205.58252 L46.8779297,203.927246 C47.3662134,204.156739 47.885007,204.337402 48.4343262,204.469238 C48.9836453,204.601075 49.4951148,204.666992 49.96875,204.666992 C50.6621128,204.666992 51.1735823,204.535158 51.5031738,204.271484 C51.8327653,204.007811 51.9975586,203.653811 51.9975586,203.209473 C51.9975586,202.80908 51.8461929,202.469728 51.543457,202.191406 C51.2407211,201.913085 50.6157274,201.583498 49.668457,201.202637 C48.6918896,200.807127 48.00342,200.355471 47.6030273,199.847656 C47.2026347,199.339841 47.0024414,198.729496 47.0024414,198.016602 C47.0024414,197.123042 47.319821,196.419924 47.9545898,195.907227 C48.5893586,195.394529 49.4414009,195.138184 50.5107422,195.138184 C51.5361379,195.138184 52.5566355,195.362791 53.5722656,195.812012 L53.015625,197.240234 C52.0634718,196.839842 51.2138709,196.639648 50.4667969,196.639648 C49.9003878,196.639648 49.4707046,196.762938 49.1777344,197.009521 C48.8847642,197.256105 48.7382812,197.582029 48.7382812,197.987305 C48.7382812,198.265626 48.7968744,198.503661 48.9140625,198.701416 C49.0312506,198.899171 49.2241198,199.085937 49.4926758,199.261719 C49.7612318,199.437501 50.2446254,199.669432 50.9428711,199.95752 C51.7290078,200.28467 52.305174,200.589842 52.6713867,200.873047 C53.0375995,201.156251 53.3061515,201.476072 53.4770508,201.83252 C53.6479501,202.188967 53.7333984,202.608884 53.7333984,203.092285 Z M59.5048828,206 L57.7543945,206 L57.7543945,196.793457 L54.6049805,196.793457 L54.6049805,195.291992 L62.6542969,195.291992 L62.6542969,196.793457 L59.5048828,196.793457 L59.5048828,206 Z M65.8989258,204.425293 C65.6645496,205.333501 65.2348664,206.502923 64.6098633,207.933594 L63.3427734,207.933594 C63.6796892,206.615228 63.9311515,205.389654 64.097168,204.256836 L65.7890625,204.256836 L65.8989258,204.425293 Z M79.2875977,198.529297 C79.2875977,199.647467 78.9213904,200.504392 78.1889648,201.100098 C77.4565393,201.695804 76.4140693,201.993652 75.0615234,201.993652 L73.9482422,201.993652 L73.9482422,206 L72.1977539,206 L72.1977539,195.291992 L75.28125,195.291992 C76.6191473,195.291992 77.6213346,195.565427 78.2878418,196.112305 C78.954349,196.659182 79.2875977,197.464838 79.2875977,198.529297 Z M73.9482422,200.521484 L74.878418,200.521484 C75.77686,200.521484 76.4360331,200.365236 76.855957,200.052734 C77.275881,199.740233 77.4858398,199.251956 77.4858398,198.587891 C77.4858398,197.972653 77.2978534,197.513673 76.921875,197.210938 C76.5458966,196.908202 75.9599649,196.756836 75.1640625,196.756836 L73.9482422,196.756836 L73.9482422,200.521484 Z M83.1767578,200.272461 L84.3925781,200.272461 C85.2080119,200.272461 85.7988263,200.121095 86.1650391,199.818359 C86.5312518,199.515623 86.7143555,199.066409 86.7143555,198.470703 C86.7143555,197.865231 86.5166035,197.430665 86.1210938,197.166992 C85.725584,196.903319 85.1298868,196.771484 84.3339844,196.771484 L83.1767578,196.771484 L83.1767578,200.272461 Z M83.1767578,201.722656 L83.1767578,206 L81.4262695,206 L81.4262695,195.291992 L84.4511719,195.291992 C85.8330147,195.291992 86.8559537,195.550779 87.5200195,196.068359 C88.1840854,196.58594 88.5161133,197.367182 88.5161133,198.412109 C88.5161133,199.745124 87.8227608,200.694821 86.4360352,201.26123 L89.4609375,206 L87.46875,206 L84.9052734,201.722656 L83.1767578,201.722656 Z M97.0708008,206 L91.0136719,206 L91.0136719,195.291992 L97.0708008,195.291992 L97.0708008,196.771484 L92.7641602,196.771484 L92.7641602,199.686523 L96.7998047,199.686523 L96.7998047,201.151367 L92.7641602,201.151367 L92.7641602,204.513184 L97.0708008,204.513184 L97.0708008,206 Z M105.55957,203.092285 C105.55957,204.044438 105.215335,204.791501 104.526855,205.333496 C103.838375,205.875491 102.888678,206.146484 101.677734,206.146484 C100.466791,206.146484 99.4755898,205.958498 98.7041016,205.58252 L98.7041016,203.927246 C99.1923853,204.156739 99.7111789,204.337402 100.260498,204.469238 C100.809817,204.601075 101.321287,204.666992 101.794922,204.666992 C102.488285,204.666992 102.999754,204.535158 103.329346,204.271484 C103.658937,204.007811 103.82373,203.653811 103.82373,203.209473 C103.82373,202.80908 103.672365,202.469728 103.369629,202.191406 C103.066893,201.913085 102.441899,201.583498 101.494629,201.202637 C100.518062,200.807127 99.8295918,200.355471 99.4291992,199.847656 C99.0288066,199.339841 98.8286133,198.729496 98.8286133,198.016602 C98.8286133,197.123042 99.1459929,196.419924 99.7807617,195.907227 C100.415531,195.394529 101.267573,195.138184 102.336914,195.138184 C103.36231,195.138184 104.382807,195.362791 105.398438,195.812012 L104.841797,197.240234 C103.889644,196.839842 103.040043,196.639648 102.292969,196.639648 C101.72656,196.639648 101.296876,196.762938 101.003906,197.009521 C100.710936,197.256105 100.564453,197.582029 100.564453,197.987305 C100.564453,198.265626 100.623046,198.503661 100.740234,198.701416 C100.857422,198.899171 101.050292,199.085937 101.318848,199.261719 C101.587404,199.437501 102.070797,199.669432 102.769043,199.95752 C103.55518,200.28467 104.131346,200.589842 104.497559,200.873047 C104.863771,201.156251 105.132323,201.476072 105.303223,201.83252 C105.474122,202.188967 105.55957,202.608884 105.55957,203.092285 Z M113.689453,206 L107.632324,206 L107.632324,195.291992 L113.689453,195.291992 L113.689453,196.771484 L109.382812,196.771484 L109.382812,199.686523 L113.418457,199.686523 L113.418457,201.151367 L109.382812,201.151367 L109.382812,204.513184 L113.689453,204.513184 L113.689453,206 Z M124.924805,206 L122.778809,206 L117.512695,197.467285 L117.454102,197.467285 L117.490723,197.943359 C117.559082,198.851567 117.593262,199.681637 117.593262,200.433594 L117.593262,206 L116.003906,206 L116.003906,195.291992 L118.12793,195.291992 L123.379395,203.780762 L123.42334,203.780762 C123.413574,203.668456 123.394043,203.259525 123.364746,202.553955 C123.335449,201.848385 123.320801,201.297854 123.320801,200.902344 L123.320801,195.291992 L124.924805,195.291992 L124.924805,206 Z M131.450684,206 L129.700195,206 L129.700195,196.793457 L126.550781,196.793457 L126.550781,195.291992 L134.600098,195.291992 L134.600098,196.793457 L131.450684,196.793457 L131.450684,206 Z M137.844727,204.425293 C137.61035,205.333501 137.180667,206.502923 136.555664,207.933594 L135.288574,207.933594 C135.62549,206.615228 135.876952,205.389654 136.042969,204.256836 L137.734863,204.256836 L137.844727,204.425293 Z M145.879395,206 L144.143555,206 L144.143555,195.291992 L150.186035,195.291992 L150.186035,196.771484 L145.879395,196.771484 L145.879395,200.118652 L149.915039,200.118652 L149.915039,201.605469 L145.879395,201.605469 L145.879395,206 Z M160.520508,195.291992 L160.520508,202.220703 C160.520508,203.011723 160.350832,203.703854 160.011475,204.297119 C159.672117,204.890384 159.1814,205.346922 158.539307,205.666748 C157.897214,205.986574 157.129399,206.146484 156.23584,206.146484 C154.907708,206.146484 153.875004,205.794925 153.137695,205.091797 C152.400387,204.388668 152.031738,203.421881 152.031738,202.191406 L152.031738,195.291992 L153.789551,195.291992 L153.789551,202.066895 C153.789551,202.950688 153.994627,203.602537 154.404785,204.022461 C154.814943,204.442385 155.44482,204.652344 156.294434,204.652344 C157.944832,204.652344 158.77002,203.785653 158.77002,202.052246 L158.77002,195.291992 L160.520508,195.291992 Z M166.958496,206 L165.208008,206 L165.208008,196.793457 L162.058594,196.793457 L162.058594,195.291992 L170.10791,195.291992 L170.10791,196.793457 L166.958496,196.793457 L166.958496,206 Z M180.14209,195.291992 L180.14209,202.220703 C180.14209,203.011723 179.972414,203.703854 179.633057,204.297119 C179.293699,204.890384 178.802982,205.346922 178.160889,205.666748 C177.518796,205.986574 176.750981,206.146484 175.857422,206.146484 C174.52929,206.146484 173.496586,205.794925 172.759277,205.091797 C172.021969,204.388668 171.65332,203.421881 171.65332,202.191406 L171.65332,195.291992 L173.411133,195.291992 L173.411133,202.066895 C173.411133,202.950688 173.616209,203.602537 174.026367,204.022461 C174.436525,204.442385 175.066402,204.652344 175.916016,204.652344 C177.566415,204.652344 178.391602,203.785653 178.391602,202.052246 L178.391602,195.291992 L180.14209,195.291992 Z M184.631836,200.272461 L185.847656,200.272461 C186.66309,200.272461 187.253904,200.121095 187.620117,199.818359 C187.98633,199.515623 188.169434,199.066409 188.169434,198.470703 C188.169434,197.865231 187.971682,197.430665 187.576172,197.166992 C187.180662,196.903319 186.584965,196.771484 185.789062,196.771484 L184.631836,196.771484 L184.631836,200.272461 Z M184.631836,201.722656 L184.631836,206 L182.881348,206 L182.881348,195.291992 L185.90625,195.291992 C187.288093,195.291992 188.311032,195.550779 188.975098,196.068359 C189.639163,196.58594 189.971191,197.367182 189.971191,198.412109 C189.971191,199.745124 189.277839,200.694821 187.891113,201.26123 L190.916016,206 L188.923828,206 L186.360352,201.722656 L184.631836,201.722656 Z M198.525879,206 L192.46875,206 L192.46875,195.291992 L198.525879,195.291992 L198.525879,196.771484 L194.219238,196.771484 L194.219238,199.686523 L198.254883,199.686523 L198.254883,201.151367 L194.219238,201.151367 L194.219238,204.513184 L198.525879,204.513184 L198.525879,206 Z" id="PAST,PRESENT,FUTURE" fill="#FFFFFF" fill-rule="nonzero"></path>
                <g id="Group-4">
                    <mask id="mask-2" fill="white">
                        <use xlink:href="#path-1"></use>
                    </mask>
                    <use id="Rectangle-Copy-5" fill="#FFFFFF" fill-rule="nonzero" xlink:href="#path-1"></use>
                    <circle id="Oval" fill="url(#linearGradient-3)" fill-rule="nonzero" opacity="0.2" mask="url(#mask-2)" cx="166" cy="177" r="154"></circle>
                    <path d="M82.568,98.759 C76.391,98.759 71.366,93.734 71.366,87.557 C71.366,81.38 76.392,76.356 82.568,76.356 C88.744,76.356 93.769,81.38 93.769,87.557 C93.769,93.734 88.745,98.759 82.568,98.759 Z M82.568,81.069 C78.99,81.069 76.08,83.98 76.08,87.557 C76.08,91.134 78.99,94.045 82.568,94.045 C86.146,94.045 89.056,91.135 89.056,87.557 C89.056,83.979 86.146,81.069 82.568,81.069 Z M69.714,115.243 L69.714,116.212 L65,116.212 L65,115.243 C65,107.831 71.03,101.801 78.442,101.802 L86.693,101.802 C87.113,101.802 87.528,101.823 87.938,101.862 C89.114,101.975 90.034,103.006 90.034,104.208 C90.034,104.867 89.767,105.475 89.284,105.92 C88.788,106.376 88.11,106.605 87.427,106.546 C87.185,106.525 86.94,106.515 86.693,106.515 L78.442,106.515 C73.629,106.515 69.714,110.43 69.714,115.243 Z M90.87,116.211 L90.872,116.211 L90.872,110.408 C90.872,107.142 91.943,104.045 93.97,101.452 C96.764,97.878 100.949,95.828 105.452,95.828 L114.551,95.828 C117.385,95.828 120.141,96.653 122.521,98.214 C126.66,100.928 129.131,105.487 129.131,110.408 L129.131,116.211 L124.417,116.211 L124.417,110.408 C124.417,104.968 119.99,100.542 114.55,100.542 L105.451,100.542 C100.01,100.542 95.584,104.968 95.584,110.408 L95.584,116.211 L90.87,116.211 Z M141.558,101.801 C148.97,101.801 155,107.831 155,115.243 L155,116.212 L150.286,116.212 L150.286,115.243 C150.286,110.43 146.371,106.515 141.558,106.515 L133.307,106.515 C133.146,106.515 132.986,106.519 132.827,106.529 C132.183,106.566 131.564,106.343 131.091,105.898 C130.621,105.455 130.352,104.83 130.352,104.182 C130.352,102.927 131.348,101.89 132.619,101.82 C132.847,101.808 133.076,101.801 133.307,101.801 L141.558,101.801 Z M137.432,98.759 C131.256,98.759 126.23,93.734 126.23,87.557 C126.23,81.38 131.255,76.356 137.432,76.356 C143.609,76.356 148.634,81.38 148.634,87.557 C148.634,93.734 143.609,98.759 137.432,98.759 Z M137.432,81.069 C133.855,81.069 130.944,83.98 130.944,87.557 C130.944,91.134 133.855,94.045 137.432,94.045 C141.009,94.045 143.92,91.135 143.92,87.557 C143.92,83.979 141.01,81.069 137.432,81.069 Z M110,93.971 C102.23,93.971 95.909,87.649 95.909,79.88 C95.909,72.11 102.23,65.789 110,65.789 C117.77,65.789 124.091,72.11 124.091,79.88 C124.091,87.65 117.769,93.971 110,93.971 Z M110,70.502 C104.829,70.502 100.622,74.709 100.622,79.88 C100.622,85.05 104.829,89.257 110,89.257 C115.17,89.257 119.377,85.05 119.377,79.88 C119.377,74.709 115.17,70.502 110,70.502 Z" id="Combined-Shape" fill="#636363" fill-rule="nonzero" mask="url(#mask-2)"></path>
                </g>
            </g>
        </g>
    </g>
</svg>