<?xml version="1.0" encoding="UTF-8"?>
<svg width="222px" height="210px" viewBox="0 0 222 210" version="1.1" xmlns="http://www.w3.org/2000/svg" xmlns:xlink="http://www.w3.org/1999/xlink">
    <!-- Generator: Sketch 53.2 (72643) - https://sketchapp.com -->
    <title>Group 3</title>
    <desc>Created with Sketch.</desc>
    <defs>
        <rect id="path-1" x="0" y="0" width="220.339096" height="182.870426" rx="15"></rect>
        <linearGradient x1="41.3337236%" y1="14.8830308%" x2="103.767959%" y2="82.4935806%" id="linearGradient-3">
            <stop stop-color="#D3D8E0" offset="0%"></stop>
            <stop stop-color="#A5ABB5" offset="100%"></stop>
        </linearGradient>
    </defs>
    <g id="Homepage" stroke="none" stroke-width="1" fill="none" fill-rule="evenodd">
        <g id="Desktop-HD" transform="translate(-738.000000, -315.000000)">
            <g id="Group-3" transform="translate(738.909036, 315.000000)">
                <path d="M81.4435042,203.654297 L82.5782698,203.654297 C83.3393413,203.654297 83.8907681,203.513022 84.2325667,203.230469 C84.5743653,202.947915 84.745262,202.528649 84.745262,201.972656 C84.745262,201.407549 84.5606935,201.001954 84.1915511,200.755859 C83.8224086,200.509764 83.2664246,200.386719 82.5235823,200.386719 L81.4435042,200.386719 L81.4435042,203.654297 Z M81.4435042,205.007812 L81.4435042,209 L79.8097151,209 L79.8097151,199.005859 L82.6329573,199.005859 C83.9226773,199.005859 84.8774203,199.247393 85.4972151,199.730469 C86.1170099,200.213544 86.4269026,200.942703 86.4269026,201.917969 C86.4269026,203.162116 85.7797737,204.0485 84.4854964,204.577148 L87.3087386,209 L85.4493636,209 L83.0567854,205.007812 L81.4435042,205.007812 Z M96.7446106,209 L91.0912903,209 L91.0912903,199.005859 L96.7446106,199.005859 L96.7446106,200.386719 L92.7250794,200.386719 L92.7250794,203.107422 L96.4916809,203.107422 L96.4916809,204.474609 L92.7250794,204.474609 L92.7250794,207.612305 L96.7446106,207.612305 L96.7446106,209 Z M105.490053,200.263672 C104.551246,200.263672 103.812972,200.596351 103.275209,201.261719 C102.737446,201.927087 102.468569,202.845372 102.468569,204.016602 C102.468569,205.242519 102.727192,206.169919 103.244448,206.798828 C103.761703,207.427738 104.51023,207.742188 105.490053,207.742188 C105.913883,207.742188 106.324035,207.700033 106.720522,207.615723 C107.117008,207.531412 107.529439,207.423178 107.957826,207.291016 L107.957826,208.692383 C107.173968,208.988608 106.285305,209.136719 105.291811,209.136719 C103.828913,209.136719 102.705552,208.693527 101.921694,207.807129 C101.137836,206.920731 100.745912,205.652678 100.745912,204.00293 C100.745912,202.963862 100.936177,202.054691 101.316713,201.275391 C101.697249,200.49609 102.247536,199.899091 102.967592,199.484375 C103.687648,199.069659 104.533017,198.862305 105.503725,198.862305 C106.524563,198.862305 107.467913,199.076495 108.333803,199.504883 L107.745912,200.865234 C107.408671,200.705728 107.052067,200.565593 106.676088,200.444824 C106.30011,200.324055 105.904769,200.263672 105.490053,200.263672 Z M118.644675,209 L117.646628,206.224609 L113.825339,206.224609 L112.8478,209 L111.125144,209 L114.864402,198.964844 L116.641745,198.964844 L120.381003,209 L118.644675,209 Z M117.215964,204.816406 L116.279441,202.095703 C116.211081,201.913411 116.116518,201.626304 115.995749,201.234375 C115.87498,200.842446 115.791811,200.555339 115.746238,200.373047 C115.62319,200.933597 115.443179,201.546546 115.206198,202.211914 L114.303855,204.816406 L117.215964,204.816406 Z M130.65086,202.027344 C130.65086,203.070969 130.309066,203.870765 129.625469,204.426758 C128.941872,204.98275 127.9689,205.260742 126.706524,205.260742 L125.667461,205.260742 L125.667461,209 L124.033672,209 L124.033672,199.005859 L126.911602,199.005859 C128.160306,199.005859 129.095681,199.261065 129.717754,199.771484 C130.339828,200.281904 130.65086,201.033849 130.65086,202.027344 Z M125.667461,203.886719 L126.535625,203.886719 C127.374171,203.886719 127.989399,203.740887 128.381328,203.449219 C128.773257,203.157551 128.969219,202.701826 128.969219,202.082031 C128.969219,201.50781 128.793765,201.079428 128.442852,200.796875 C128.091939,200.514322 127.545069,200.373047 126.802227,200.373047 L125.667461,200.373047 L125.667461,203.886719 Z M140.742982,206.286133 C140.742982,207.174809 140.421696,207.872068 139.779114,208.37793 C139.136533,208.883792 138.250149,209.136719 137.119935,209.136719 C135.989721,209.136719 135.0646,208.961265 134.344544,208.610352 L134.344544,207.06543 C134.800276,207.279623 135.284483,207.448242 135.797181,207.571289 C136.309879,207.694337 136.78725,207.755859 137.22931,207.755859 C137.876448,207.755859 138.35382,207.632814 138.661439,207.386719 C138.969057,207.140624 139.122864,206.810223 139.122864,206.395508 C139.122864,206.021808 138.98159,205.705079 138.699036,205.445312 C138.416483,205.185546 137.833155,204.877931 136.949036,204.522461 C136.037573,204.153318 135.395002,203.731773 135.021302,203.257812 C134.647602,202.783852 134.460755,202.214196 134.460755,201.548828 C134.460755,200.71484 134.756976,200.058596 135.349427,199.580078 C135.941878,199.10156 136.737117,198.862305 137.735169,198.862305 C138.692205,198.862305 139.64467,199.071938 140.592591,199.491211 L140.07306,200.824219 C139.184383,200.450519 138.391423,200.263672 137.694154,200.263672 C137.165505,200.263672 136.764467,200.378742 136.491029,200.608887 C136.21759,200.839031 136.080872,201.143227 136.080872,201.521484 C136.080872,201.781251 136.135559,202.003417 136.244935,202.187988 C136.35431,202.37256 136.534322,202.546874 136.784974,202.710938 C137.035626,202.875001 137.486794,203.09147 138.138489,203.360352 C138.872217,203.665692 139.409972,203.95052 139.751771,204.214844 C140.093569,204.479168 140.344218,204.777668 140.503724,205.110352 C140.66323,205.443036 140.742982,205.834959 140.742982,206.286133 Z" id="RECAPS" fill="#FFFFFF" fill-rule="nonzero"></path>
                <mask id="mask-2" fill="white">
                    <use xlink:href="#path-1"></use>
                </mask>
                <use id="Rectangle-Copy-5" fill="#FFFFFF" fill-rule="nonzero" xlink:href="#path-1"></use>
                <circle id="Oval" fill="url(#linearGradient-3)" fill-rule="nonzero" opacity="0.600000024" mask="url(#mask-2)" cx="172.590964" cy="162.5" r="168.5"></circle>
                <path d="M89.2087165,74.4033652 C85.7026961,76.3316764 83.1608314,79.0488422 81.4954717,81.240105 C80.8819181,82.0289596 79.5671605,81.5030565 79.830112,80.4512504 C81.0572191,74.4033652 85.3520941,72.8256561 88.6828135,72.5627045 C89.7346196,72.5627045 90.0852216,73.8774622 89.2087165,74.4033652 Z M146.181548,78.8735412 L146.181548,104.204538 C146.181548,112.443686 139.520109,119.192776 131.280961,119.368077 L131.280961,120.507533 C131.280961,121.822291 130.229155,122.874097 128.914397,122.874097 L127.424339,122.874097 C126.109581,122.874097 125.057775,121.822291 125.057775,120.507533 L125.057775,119.368077 L91.4876298,119.368077 L91.4876298,121.033436 C91.4876298,122.348194 90.4358236,123.4 89.121066,123.4 L87.6310073,123.4 C86.3162497,123.4 85.2644436,122.348194 85.2644436,121.033436 L85.2644436,119.280426 C77.6388493,118.491571 71.5909641,112.005434 71.5909641,104.204538 L71.5909641,78.8735412 C71.5909641,70.5467428 78.4277038,63.7100031 86.7545022,63.7100031 L96.7466603,63.7100031 C98.4996705,62.482896 100.427982,61.6063909 102.443943,61.0804878 L97.2725634,55.9091077 C96.4837088,55.1202532 96.4837088,53.8054955 97.2725634,53.0166409 C98.061418,52.2277864 99.3761756,52.2277864 100.16503,53.0166409 L107.00177,59.8533807 L113.92616,53.0166409 C114.715015,52.2277864 116.029772,52.2277864 116.818627,53.0166409 C117.607482,53.8054955 117.607482,55.1202532 116.818627,55.9091077 L111.647247,61.0804878 C113.750859,61.6063909 115.67917,62.5705465 117.34453,63.7100031 L131.018009,63.7100031 C139.344808,63.7100031 146.181548,70.5467428 146.181548,78.8735412 Z M133.209272,80.5389009 C133.209272,74.5786663 128.300844,69.6702377 122.340609,69.6702377 L88.2445609,69.6702377 C82.2843263,69.6702377 77.3758977,74.5786663 77.3758977,80.5389009 L77.3758977,102.71448 C77.3758977,108.674714 82.2843263,113.583143 88.2445609,113.583143 L122.340609,113.583143 C128.300844,113.583143 133.209272,108.674714 133.209272,102.71448 L133.209272,80.5389009 Z M141.974323,97.8937018 C141.974323,96.6665946 140.922517,95.6147885 139.69541,95.6147885 C138.468303,95.6147885 137.416497,96.6665946 137.416497,97.8937018 C137.416497,99.1208089 138.468303,100.172615 139.69541,100.172615 C140.922517,100.172615 141.974323,99.2084594 141.974323,97.8937018 Z M141.974323,91.5828651 C141.974323,90.3557579 140.922517,89.3039518 139.69541,89.3039518 C138.468303,89.3039518 137.416497,90.3557579 137.416497,91.5828651 C137.416497,92.8099722 138.468303,93.8617783 139.69541,93.8617783 C140.922517,93.9494288 141.974323,92.8976227 141.974323,91.5828651 Z M141.974323,85.2720284 C141.974323,84.0449213 140.922517,82.9931152 139.69541,82.9931152 C138.468303,82.9931152 137.416497,84.0449213 137.416497,85.2720284 C137.416497,86.4991355 138.468303,87.5509416 139.69541,87.5509416 C140.922517,87.5509416 141.974323,86.4991355 141.974323,85.2720284 Z" id="Shape" fill="#5C5C5C" fill-rule="nonzero" mask="url(#mask-2)"></path>
            </g>
        </g>
    </g>
</svg>