<?xml version="1.0" encoding="UTF-8"?>
<svg width="222px" height="210px" viewBox="0 0 222 210" version="1.1" xmlns="http://www.w3.org/2000/svg" xmlns:xlink="http://www.w3.org/1999/xlink">
    <!-- Generator: Sketch 54.1 (76490) - https://sketchapp.com -->
    <title>Group</title>
    <desc>Created with Sketch.</desc>
    <defs>
        <rect id="path-1" x="0.909035885" y="-1.42108547e-14" width="220.339096" height="182.870426" rx="15"></rect>
        <linearGradient x1="41.3337236%" y1="14.8830308%" x2="103.767959%" y2="82.4935806%" id="linearGradient-3">
            <stop stop-color="#CA2026" offset="0%"></stop>
            <stop stop-color="#FF0036" offset="100%"></stop>
        </linearGradient>
    </defs>
    <g id="Homepage" stroke="none" stroke-width="1" fill="none" fill-rule="evenodd">
        <g id="Desktop-HD" transform="translate(-70.000000, -239.000000)">
            <g id="Group-Copy" transform="translate(70.000000, 239.000000)">
                <g id="Group">
                    <g id="Group-4-Copy-6">
                        <mask id="mask-2" fill="white">
                            <use xlink:href="#path-1"></use>
                        </mask>
                        <use id="Rectangle-Copy-5" fill="#FFFFFF" fill-rule="nonzero" xlink:href="#path-1"></use>
                        <circle id="Oval" fill="url(#linearGradient-3)" fill-rule="nonzero" opacity="0.100000001" mask="url(#mask-2)" cx="167" cy="177" r="154"></circle>
                        <path d="M90.1177524,74.4033652 C86.611732,76.3316764 84.0698672,79.0488422 82.4045076,81.240105 C81.790954,82.0289596 80.4761964,81.5030565 80.7391479,80.4512504 C81.966255,74.4033652 86.26113,72.8256561 89.5918493,72.5627045 C90.6436554,72.5627045 90.9942575,73.8774622 90.1177524,74.4033652 Z M147.090584,78.8735412 L147.090584,104.204538 C147.090584,112.443686 140.429145,119.192776 132.189997,119.368077 L132.189997,120.507533 C132.189997,121.822291 131.138191,122.874097 129.823433,122.874097 L128.333374,122.874097 C127.018617,122.874097 125.966811,121.822291 125.966811,120.507533 L125.966811,119.368077 L92.3966656,119.368077 L92.3966656,121.033436 C92.3966656,122.348194 91.3448595,123.4 90.0301019,123.4 L88.5400432,123.4 C87.2252856,123.4 86.1734795,122.348194 86.1734795,121.033436 L86.1734795,119.280426 C78.5478851,118.491571 72.5,112.005434 72.5,104.204538 L72.5,78.8735412 C72.5,70.5467428 79.3367397,63.7100031 87.6635381,63.7100031 L97.6556962,63.7100031 C99.4087064,62.482896 101.337018,61.6063909 103.352979,61.0804878 L98.1815993,55.9091077 C97.3927447,55.1202532 97.3927447,53.8054955 98.1815993,53.0166409 C98.9704538,52.2277864 100.285211,52.2277864 101.074066,53.0166409 L107.910806,59.8533807 L114.835196,53.0166409 C115.624051,52.2277864 116.938808,52.2277864 117.727663,53.0166409 C118.516517,53.8054955 118.516517,55.1202532 117.727663,55.9091077 L112.556283,61.0804878 C114.659895,61.6063909 116.588206,62.5705465 118.253566,63.7100031 L131.927045,63.7100031 C140.253844,63.7100031 147.090584,70.5467428 147.090584,78.8735412 Z M134.118308,80.5389009 C134.118308,74.5786663 129.20988,69.6702377 123.249645,69.6702377 L89.1535968,69.6702377 C83.1933621,69.6702377 78.2849336,74.5786663 78.2849336,80.5389009 L78.2849336,102.71448 C78.2849336,108.674714 83.1933621,113.583143 89.1535968,113.583143 L123.249645,113.583143 C129.20988,113.583143 134.118308,108.674714 134.118308,102.71448 L134.118308,80.5389009 Z M142.883359,97.8937018 C142.883359,96.6665946 141.831553,95.6147885 140.604446,95.6147885 C139.377339,95.6147885 138.325533,96.6665946 138.325533,97.8937018 C138.325533,99.1208089 139.377339,100.172615 140.604446,100.172615 C141.831553,100.172615 142.883359,99.2084594 142.883359,97.8937018 Z M142.883359,91.5828651 C142.883359,90.3557579 141.831553,89.3039518 140.604446,89.3039518 C139.377339,89.3039518 138.325533,90.3557579 138.325533,91.5828651 C138.325533,92.8099722 139.377339,93.8617783 140.604446,93.8617783 C141.831553,93.9494288 142.883359,92.8976227 142.883359,91.5828651 Z M142.883359,85.2720284 C142.883359,84.0449213 141.831553,82.9931152 140.604446,82.9931152 C139.377339,82.9931152 138.325533,84.0449213 138.325533,85.2720284 C138.325533,86.4991355 139.377339,87.5509416 140.604446,87.5509416 C141.831553,87.5509416 142.883359,86.4991355 142.883359,85.2720284 Z" id="Shape" fill="#CB2026" fill-rule="nonzero" mask="url(#mask-2)"></path>
                    </g>
                    <path d="M84.4702168,204.036133 L85.5239278,204.036133 C86.230637,204.036133 86.7426762,203.904949 87.0600606,203.642578 C87.377445,203.380207 87.5361348,202.990888 87.5361348,202.474609 C87.5361348,201.949867 87.3647498,201.573243 87.0219747,201.344727 C86.6791995,201.11621 86.1629286,201.001953 85.4731465,201.001953 L84.4702168,201.001953 L84.4702168,204.036133 Z M84.4702168,205.292969 L84.4702168,209 L82.953127,209 L82.953127,199.719727 L85.574709,199.719727 C86.7723062,199.719727 87.6588533,199.944008 88.234377,200.392578 C88.8099007,200.841148 89.0976583,201.518225 89.0976583,202.423828 C89.0976583,203.579107 88.4967528,204.402179 87.2949239,204.893066 L89.9165059,209 L88.1899434,209 L85.9682637,205.292969 L84.4702168,205.292969 Z M98.6783868,209 L93.428875,209 L93.428875,199.719727 L98.6783868,199.719727 L98.6783868,201.001953 L94.9459649,201.001953 L94.9459649,203.52832 L98.4435235,203.52832 L98.4435235,204.797852 L94.9459649,204.797852 L94.9459649,207.711426 L98.6783868,207.711426 L98.6783868,209 Z M106.799154,200.887695 C105.927405,200.887695 105.241865,201.196611 104.742514,201.814453 C104.243162,202.432295 103.99349,203.284988 103.99349,204.372559 C103.99349,205.510911 104.233641,206.372067 104.713949,206.956055 C105.194258,207.540042 105.889319,207.832031 106.799154,207.832031 C107.192711,207.832031 107.573567,207.792888 107.941732,207.7146 C108.309898,207.636311 108.69287,207.535808 109.090658,207.413086 L109.090658,208.714355 C108.36279,208.989422 107.537603,209.126953 106.615072,209.126953 C105.256667,209.126953 104.213546,208.715418 103.485678,207.892334 C102.75781,207.06925 102.393881,205.891772 102.393881,204.359863 C102.393881,203.395015 102.570556,202.550785 102.92391,201.827148 C103.277265,201.103512 103.788246,200.549156 104.456869,200.164062 C105.125492,199.778969 105.910478,199.586426 106.81185,199.586426 C107.759771,199.586426 108.635739,199.785317 109.439779,200.183105 L108.893881,201.446289 C108.580728,201.298176 108.249596,201.168051 107.900473,201.055908 C107.55135,200.943766 107.184247,200.887695 106.799154,200.887695 Z M119.01416,209 L118.087402,206.422852 L114.539063,206.422852 L113.631348,209 L112.031738,209 L115.503906,199.681641 L117.154297,199.681641 L120.626465,209 L119.01416,209 Z M117.6875,205.115234 L116.817871,202.588867 C116.754394,202.419596 116.666586,202.152997 116.554443,201.789062 C116.442301,201.425128 116.365072,201.158529 116.322754,200.989258 C116.208496,201.509768 116.041342,202.078936 115.821289,202.696777 L114.983398,205.115234 L117.6875,205.115234 Z M130.16276,202.525391 C130.16276,203.494471 129.84538,204.237139 129.210611,204.753418 C128.575843,205.269697 127.672368,205.527832 126.500162,205.527832 L125.535318,205.527832 L125.535318,209 L124.018229,209 L124.018229,199.719727 L126.690592,199.719727 C127.850103,199.719727 128.718665,199.956703 129.296305,200.430664 C129.873944,200.904625 130.16276,201.60286 130.16276,202.525391 Z M125.535318,204.251953 L126.341471,204.251953 C127.12012,204.251953 127.691404,204.116538 128.055338,203.845703 C128.419272,203.574868 128.601236,203.151696 128.601236,202.576172 C128.601236,202.042966 128.438315,201.645184 128.112467,201.382812 C127.786619,201.120441 127.278811,200.989258 126.589029,200.989258 L125.535318,200.989258 L125.535318,204.251953 Z M139.534016,206.47998 C139.534016,207.30518 139.235679,207.952634 138.638996,208.422363 C138.042313,208.892092 137.219242,209.126953 136.169758,209.126953 C135.120273,209.126953 134.261232,208.964032 133.592609,208.638184 L133.592609,207.203613 C134.015789,207.402508 134.46541,207.559081 134.941486,207.67334 C135.417563,207.787598 135.860836,207.844727 136.27132,207.844727 C136.872235,207.844727 137.315508,207.73047 137.601154,207.501953 C137.8868,207.273436 138.029621,206.966636 138.029621,206.581543 C138.029621,206.234536 137.898437,205.940431 137.636066,205.699219 C137.373695,205.458007 136.832034,205.172365 136.011066,204.842285 C135.164708,204.49951 134.568034,204.108075 134.221027,203.667969 C133.87402,203.227862 133.70052,202.698896 133.70052,202.081055 C133.70052,201.306637 133.975582,200.697268 134.525715,200.25293 C135.075848,199.808592 135.814284,199.586426 136.741047,199.586426 C137.629723,199.586426 138.514154,199.781085 139.394367,200.17041 L138.911945,201.408203 C138.086746,201.061196 137.350425,200.887695 136.702961,200.887695 C136.212073,200.887695 135.839681,200.994546 135.585773,201.208252 C135.331866,201.421957 135.204914,201.704425 135.204914,202.055664 C135.204914,202.296876 135.255695,202.503173 135.357258,202.674561 C135.458821,202.845948 135.625974,203.007812 135.858723,203.160156 C136.091471,203.312501 136.510412,203.513508 137.115559,203.763184 C137.796877,204.046714 138.296221,204.311197 138.613605,204.556641 C138.93099,204.802085 139.163735,205.079263 139.311848,205.388184 C139.45996,205.697104 139.534016,206.061033 139.534016,206.47998 Z" id="RECAPS" fill="#FFFFFF" fill-rule="nonzero"></path>
                </g>
            </g>
        </g>
    </g>
</svg>